<svg width="95" height="96" viewBox="0 0 95 96" fill="none" xmlns="http://www.w3.org/2000/svg">
<path d="M24.7522 6.9538L14.5078 9.51259L6.50415 28.1951L12.6589 32.2996L17.7359 22.1494L20.8881 23.0554L18.1019 50.8065H45.4408L47.1417 34.5552L47.3081 33.0576H48.1401L47.1417 23.0554L50.3032 22.1494L55.369 32.2996L61.5257 28.1951L53.5202 9.51259L43.2776 6.9538C42.2608 7.6693 41.022 8.10193 39.6724 8.42363C37.9345 8.83222 35.9747 9.02265 34.0149 9.02265C32.0551 9.02265 30.0954 8.83222 28.3575 8.42363C27.0078 8.10193 25.7691 7.67115 24.7522 6.9538ZM50.3032 36.3855L50.0259 38.9739H83.0832L82.8059 36.3855H50.3032ZM49.6746 42.3018L44.7382 89.2624H56.3304L64.9276 49.161H68.1815L76.7786 89.2624H88.3709L83.4345 42.3018H49.6746Z" fill="#1F4529"/>
</svg>
