<svg width="96" height="96" viewBox="0 0 96 96" fill="none" xmlns="http://www.w3.org/2000/svg">
<path d="M52.0566 9.10712H43.2917V52.9315H52.0566V9.10712ZM73.2238 18.617L67.0007 24.8401C70.5501 27.6873 73.4134 31.2967 75.3782 35.4009C77.3431 39.5051 78.3592 43.9988 78.3512 48.5491C78.3512 65.5091 64.6342 79.2262 47.6741 79.2262C41.3425 79.23 35.165 77.2731 29.9904 73.6244C24.8157 69.9757 20.8978 64.8142 18.775 58.849C16.6521 52.8839 16.4284 46.4077 18.1346 40.3103C19.8408 34.2128 23.3932 28.7933 28.3038 24.7963L22.1245 18.617C17.7689 22.2935 14.2689 26.8771 11.8693 32.0472C9.46967 37.2173 8.22837 42.8492 8.23219 48.5491C8.23219 59.0097 12.3877 69.042 19.7845 76.4388C27.1813 83.8356 37.2135 87.9911 47.6741 87.991C58.1348 87.991 68.167 83.8356 75.5638 76.4388C82.9606 69.042 87.1161 59.0097 87.1161 48.5491C87.1161 36.5412 81.7257 25.848 73.2238 18.617Z" fill="#1F4529"/>
</svg>
