<svg width="95" height="96" viewBox="0 0 95 96" fill="none" xmlns="http://www.w3.org/2000/svg">
<path d="M71.2947 91.5201H77.8421C81.1552 91.5201 83.8767 88.9564 84.2711 85.7222L90.779 20.7218H71.0581V4.7478H63.288V20.7218H43.6853L44.8686 29.9512C51.6132 31.805 57.9239 35.1576 61.7103 38.8651C67.3899 44.4659 71.2947 50.2638 71.2947 59.7299V91.5201ZM4.00671 87.5759V83.6317H63.288V87.5759C63.288 89.7058 61.5131 91.5201 59.2255 91.5201H7.95091C5.7816 91.5201 4.00671 89.7058 4.00671 87.5759ZM63.288 59.9666C63.288 28.413 4.00671 28.413 4.00671 59.9666H63.288ZM4.00671 67.8549H63.1697V75.7433H4.00671V67.8549Z" fill="#1F4529"/>
</svg>
