<svg width="96" height="96" viewBox="0 0 96 96" fill="none" xmlns="http://www.w3.org/2000/svg">
<path d="M15.2015 83.42C15.2015 85.0562 16.5234 86.3781 18.1597 86.3781H44.5981V51.6199H15.2015V83.42ZM50.8842 86.3781H77.3226C78.9588 86.3781 80.2807 85.0562 80.2807 83.42V51.6199H50.8842V86.3781ZM81.7598 29.4338H68.1154C69.3726 27.4555 70.1121 25.1075 70.1121 22.5931C70.1121 15.5582 64.3899 9.83606 57.3551 9.83606C53.528 9.83606 50.0799 11.537 47.7411 14.2178C45.4023 11.537 41.9542 9.83606 38.1271 9.83606C31.0923 9.83606 25.3701 15.5582 25.3701 22.5931C25.3701 25.1075 26.1004 27.4555 27.3669 29.4338H13.7224C12.0862 29.4338 10.7643 30.7557 10.7643 32.3919V45.3338H44.5981V29.4338H50.8842V45.3338H84.718V32.3919C84.718 30.7557 83.396 29.4338 81.7598 29.4338ZM44.5981 29.064H38.1271C34.5589 29.064 31.6562 26.1613 31.6562 22.5931C31.6562 19.0248 34.5589 16.1221 38.1271 16.1221C41.6954 16.1221 44.5981 19.0248 44.5981 22.5931V29.064ZM57.3551 29.064H50.8842V22.5931C50.8842 19.0248 53.7868 16.1221 57.3551 16.1221C60.9234 16.1221 63.826 19.0248 63.826 22.5931C63.826 26.1613 60.9234 29.064 57.3551 29.064Z" fill="#1F4529"/>
</svg>
