<svg width="36" height="36" viewBox="0 0 36 36" fill="none" xmlns="http://www.w3.org/2000/svg">
<path d="M16.4982 29.3055L16.4967 29.3042C12.6146 25.7839 9.47281 22.929 7.28989 20.2584C5.11796 17.6012 4 15.2487 4 12.75C4 8.66848 7.18109 5.5 11.25 5.5C13.5577 5.5 15.7891 6.57946 17.2412 8.27128L18 9.15543L18.7588 8.27128C20.2109 6.57946 22.4423 5.5 24.75 5.5C28.8189 5.5 32 8.66848 32 12.75C32 15.2487 30.882 17.6012 28.7101 20.2584C26.5272 22.929 23.3854 25.7839 19.5033 29.3042L19.5018 29.3055L18 30.6727L16.4982 29.3055Z" stroke="#1F4529" stroke-width="2"/>
</svg>
