<svg width="32" height="33" viewBox="0 0 32 33" fill="none" xmlns="http://www.w3.org/2000/svg">
<g clip-path="url(#clip0_62_111)">
<path d="M9.28 0.5H22.72C27.84 0.5 32 4.66 32 9.78V23.22C32 25.6812 31.0223 28.0416 29.282 29.782C27.5416 31.5223 25.1812 32.5 22.72 32.5H9.28C4.16 32.5 0 28.34 0 23.22V9.78C0 7.31879 0.977712 4.95839 2.71805 3.21805C4.45839 1.47771 6.81879 0.5 9.28 0.5ZM8.96 3.7C7.43235 3.7 5.96727 4.30686 4.88707 5.38707C3.80686 6.46727 3.2 7.93235 3.2 9.46V23.54C3.2 26.724 5.776 29.3 8.96 29.3H23.04C24.5676 29.3 26.0327 28.6931 27.1129 27.6129C28.1931 26.5327 28.8 25.0676 28.8 23.54V9.46C28.8 6.276 26.224 3.7 23.04 3.7H8.96ZM24.4 6.1C24.9304 6.1 25.4391 6.31071 25.8142 6.68579C26.1893 7.06086 26.4 7.56957 26.4 8.1C26.4 8.63043 26.1893 9.13914 25.8142 9.51421C25.4391 9.88929 24.9304 10.1 24.4 10.1C23.8696 10.1 23.3609 9.88929 22.9858 9.51421C22.6107 9.13914 22.4 8.63043 22.4 8.1C22.4 7.56957 22.6107 7.06086 22.9858 6.68579C23.3609 6.31071 23.8696 6.1 24.4 6.1ZM16 8.5C18.1217 8.5 20.1566 9.34285 21.6569 10.8431C23.1571 12.3434 24 14.3783 24 16.5C24 18.6217 23.1571 20.6566 21.6569 22.1569C20.1566 23.6571 18.1217 24.5 16 24.5C13.8783 24.5 11.8434 23.6571 10.3431 22.1569C8.84285 20.6566 8 18.6217 8 16.5C8 14.3783 8.84285 12.3434 10.3431 10.8431C11.8434 9.34285 13.8783 8.5 16 8.5ZM16 11.7C14.727 11.7 13.5061 12.2057 12.6059 13.1059C11.7057 14.0061 11.2 15.227 11.2 16.5C11.2 17.773 11.7057 18.9939 12.6059 19.8941C13.5061 20.7943 14.727 21.3 16 21.3C17.273 21.3 18.4939 20.7943 19.3941 19.8941C20.2943 18.9939 20.8 17.773 20.8 16.5C20.8 15.227 20.2943 14.0061 19.3941 13.1059C18.4939 12.2057 17.273 11.7 16 11.7Z" fill="black"/>
</g>
<defs>
<clipPath id="clip0_62_111">
<rect width="32" height="32" fill="white" transform="translate(0 0.5)"/>
</clipPath>
</defs>
</svg>
