<svg width="199" height="50" viewBox="0 0 199 50" fill="none" xmlns="http://www.w3.org/2000/svg">
<path d="M95.1959 32.4658C93.6214 30.266 93.6214 27.7249 93.6214 25.2027C96.7894 27.0991 99.9384 28.9954 101.532 31.2142L102.158 32.2761V27.9524C99.3124 26.2457 96.6186 24.501 95.1959 22.5099C93.6214 20.3101 93.6214 17.7689 93.6214 15.2468C96.7894 17.1431 99.9384 19.0395 101.532 21.2583L102.158 22.3581V17.9965C99.3124 16.2898 96.6186 14.5451 95.1959 12.5539C93.6214 10.3542 93.6214 7.81303 93.6214 5.29086C96.7894 7.18722 99.9384 9.08359 101.532 11.3023C101.722 11.5678 101.892 11.8523 102.044 12.1557C101.722 10.98 101.513 9.88006 101.494 8.74224C101.475 5.87873 102.727 2.93937 103.979 0C105.288 2.80662 106.597 5.63221 106.616 8.49572C106.635 9.69043 106.426 10.9041 106.085 12.0988C106.236 11.8333 106.388 11.5678 106.578 11.3023C108.171 9.08359 111.32 7.18722 114.488 5.29086C114.488 7.81303 114.488 10.3542 112.914 12.5539C111.491 14.5451 108.797 16.2898 105.952 17.9965V22.3581L106.578 21.2583C108.171 19.0395 111.32 17.1431 114.488 15.2468C114.488 17.7689 114.488 20.3101 112.914 22.5099C111.491 24.501 108.797 26.2457 105.952 27.9524V32.2761L106.578 31.2142C108.171 28.9954 111.32 27.0991 114.488 25.2027C114.488 27.7249 114.488 30.266 112.914 32.4658C111.491 34.457 108.797 36.2016 105.952 37.9084V49.9999H102.158V37.9084C99.3124 36.2016 96.6186 34.457 95.1959 32.4658Z" fill="#BC6C25"/>
<path d="M101.532 41.5884L102.158 42.6503V48.2825C99.3124 46.5758 96.6186 44.8312 95.1959 42.84C93.6214 40.6402 90.4152 9.25293 90.4152 6.73076C93.5832 8.62713 99.9384 39.3696 101.532 41.5884Z" fill="#47663B"/>
<path d="M106.566 41.5884L105.94 42.6503L105.952 48.2825C108.797 46.5758 111.479 44.8312 112.902 42.84C114.476 40.6402 117.682 9.25293 117.682 6.73076C114.514 8.62713 108.159 39.3696 106.566 41.5884Z" fill="#47663B"/>
<path d="M24.8879 27.9639V11.7239H30.6313V50H24.8879V33.7053H5.74336V50H0V11.7239H5.74336V27.9639H24.8879Z" fill="black"/>
<path d="M59.0746 22.7146V19.3791H64.8179V50H59.0746V46.6098C56.3032 48.87 53.1124 50 49.5023 50C45.2723 50 41.6621 48.5054 38.672 45.5162C35.6818 42.527 34.1867 38.9181 34.1867 34.6896C34.1867 30.461 35.6818 26.8521 38.672 23.8629C41.6621 20.8737 45.2723 19.3791 49.5023 19.3791C53.0759 19.3791 56.2667 20.4909 59.0746 22.7146ZM49.5023 44.2586C52.1643 44.2586 54.4252 43.329 56.2849 41.4699C58.1447 39.5743 59.0746 37.3142 59.0746 34.6896C59.0746 32.0285 58.1447 29.7683 56.2849 27.9092C54.4252 26.0501 52.1643 25.1205 49.5023 25.1205C46.8768 25.1205 44.6159 26.0501 42.7197 27.9092C40.8599 29.7683 39.93 32.0285 39.93 34.6896C39.93 37.3142 40.8599 39.5743 42.7197 41.4699C44.6159 43.329 46.8768 44.2586 49.5023 44.2586Z" fill="black"/>
<path d="M83.689 19.3791C85.5852 19.3791 87.3902 19.7072 89.1041 20.3634L87.2991 25.8314C86.0592 25.3575 84.8559 25.1205 83.689 25.1205C81.027 25.1205 78.7661 26.0501 76.9063 27.9092C75.0466 29.7683 74.1167 32.0285 74.1167 34.6896V50H68.3733V19.3791H74.1167V22.7146C76.9246 20.4909 80.1153 19.3791 83.689 19.3791Z" fill="black"/>
<path d="M149.537 34.6896C149.537 35.5644 149.446 36.5122 149.263 37.5329H124.922C125.396 39.7931 126.454 41.4881 128.095 42.6182C129.772 43.7118 131.814 44.2586 134.221 44.2586C137.722 44.2586 140.548 43.2926 142.699 41.3605L147.622 44.2586C146.382 46.1177 144.468 47.5394 141.879 48.5236C139.326 49.5079 136.774 50 134.221 50C129.918 50 126.29 48.5236 123.336 45.5709C120.382 42.6182 118.906 38.9911 118.906 34.6896C118.906 30.4974 120.401 26.9068 123.391 23.9176C126.417 20.8919 130.028 19.3791 134.221 19.3791C138.415 19.3791 142.007 20.8919 144.997 23.9176C148.023 26.9068 149.537 30.4974 149.537 34.6896ZM125.086 31.7915H143.356C142.772 29.823 141.624 28.2191 139.91 26.9797C138.196 25.7402 136.3 25.1205 134.221 25.1205C132.143 25.1205 130.246 25.7402 128.532 26.9797C126.819 28.2191 125.67 29.823 125.086 31.7915Z" fill="black"/>
<path d="M177.117 40.431C177.117 43.2743 175.841 45.5891 173.288 47.3753C170.772 49.1251 167.581 50 163.716 50C161.455 50 159.194 49.7813 156.933 49.3438C154.709 48.9064 153.049 48.469 151.955 48.0315L150.315 47.3207L152.612 42.0714C152.904 42.2172 153.323 42.4177 153.87 42.6729C154.417 42.928 155.657 43.2561 157.589 43.6571C159.522 44.0581 161.564 44.2586 163.716 44.2586C165.357 44.2586 166.742 44.1128 167.873 43.8212C169.003 43.4931 169.787 43.1103 170.225 42.6729C170.662 42.199 170.972 41.7433 171.155 41.3059C171.373 40.832 171.465 40.4492 171.428 40.1576L171.373 39.6655C170.972 39.0458 169.951 38.5901 168.31 38.2985C166.706 37.9704 164.919 37.697 162.95 37.4782C160.981 37.2231 159.03 36.8585 157.097 36.3847C155.164 35.9108 153.542 35.0541 152.229 33.8147C150.953 32.5753 150.315 30.9531 150.315 28.9481C150.315 26.1048 151.573 23.8082 154.089 22.0584C156.641 20.2722 159.85 19.3791 163.716 19.3791C165.977 19.3791 168.055 19.5796 169.951 19.9806C171.884 20.3451 173.251 20.7279 174.054 21.1289L175.202 21.6757L172.413 26.7063C169.933 25.6491 167.034 25.1205 163.716 25.1205C162.294 25.1205 161.054 25.2481 159.996 25.5033C158.939 25.7585 158.173 26.0501 157.699 26.3782C157.225 26.6698 156.842 27.0343 156.55 27.4718C156.295 27.8728 156.149 28.1826 156.113 28.4013C156.076 28.5836 156.058 28.7659 156.058 28.9481C156.058 29.7501 156.769 30.3516 158.191 30.7526C159.65 31.1171 161.4 31.4088 163.442 31.6275C165.521 31.8097 167.599 32.1196 169.678 32.557C171.756 32.9945 173.507 33.8694 174.929 35.1817C176.388 36.494 177.117 38.2438 177.117 40.431Z" fill="black"/>
<path d="M197.841 42.0714L198.99 47.7034C198.808 47.8857 198.534 48.1044 198.169 48.3596C197.841 48.6148 197.021 48.9611 195.708 49.3985C194.395 49.7995 192.937 50 191.332 50C188.67 50 186.409 49.0704 184.549 47.2113C182.69 45.3522 181.76 43.0921 181.76 40.431V25.1205H177.931V19.3791H181.76V11.7239H187.503V19.3791H197.841V25.1205H187.503V38.5172C187.503 39.5014 187.686 40.3763 188.05 41.1418C188.415 41.8709 188.852 42.3995 189.363 42.7276C189.91 43.0556 190.439 43.329 190.949 43.5478C191.496 43.73 191.952 43.8394 192.317 43.8758H192.864C193.775 43.8758 194.632 43.73 195.434 43.4384C196.273 43.1468 196.893 42.8551 197.294 42.5635L197.841 42.0714Z" fill="black"/>
</svg>
