<svg width="718" height="140" viewBox="0 0 718 140" fill="none" xmlns="http://www.w3.org/2000/svg">
<path d="M13.8579 90.9042C9.45849 84.7448 9.45848 77.6296 9.45848 70.5676C18.3102 75.8774 27.109 81.1872 31.5614 87.3997L33.3105 90.3732V78.2668C25.3599 73.488 17.8332 68.6029 13.8579 63.0276C9.45849 56.8682 9.45848 49.753 9.45848 42.691C18.3102 48.0008 27.109 53.3106 31.5614 59.5231L33.3105 62.6028V50.3902C25.3599 45.6114 17.8332 40.7263 13.8579 35.151C9.45849 28.9916 9.45848 21.8765 9.45848 14.8144C18.3102 20.1242 27.109 25.4341 31.5614 31.6465C32.0914 32.3899 32.5684 33.1864 32.9925 34.036C32.0914 30.7439 31.5084 27.6642 31.4554 24.4783C31.4024 16.4605 34.9007 8.23023 38.399 0C42.0563 7.85854 45.7136 15.7702 45.7666 23.788C45.8196 27.1332 45.2365 30.5315 44.2825 33.8767C44.7065 33.1333 45.1305 32.3899 45.6606 31.6465C50.1129 25.4341 58.9117 20.1242 67.7635 14.8144C67.7635 21.8765 67.7635 28.9916 63.3641 35.151C59.3888 40.7263 51.8621 45.6114 43.9115 50.3902V62.6028L45.6606 59.5231C50.1129 53.3106 58.9117 48.0008 67.7635 42.691C67.7635 49.753 67.7635 56.8682 63.3641 63.0276C59.3888 68.6029 51.8621 73.488 43.9115 78.2668V90.3732L45.6606 87.3997C50.1129 81.1872 58.9117 75.8774 67.7635 70.5676C67.7635 77.6296 67.7635 84.7448 63.3641 90.9042C59.3888 96.4795 51.8621 101.365 43.9115 106.143V140H33.3105V106.143C25.3599 101.365 17.8332 96.4795 13.8579 90.9042Z" fill="#BC6C25"/>
<path d="M31.5614 116.447L33.3105 119.421V135.191C25.3599 130.412 17.8332 125.527 13.8579 119.952C9.45852 113.793 0.5 25.9082 0.5 18.8461C9.35175 24.156 27.109 110.235 31.5614 116.447Z" fill="#47663B"/>
<path d="M45.6261 116.447L43.877 119.421L43.9115 135.191C51.8621 130.412 59.3543 125.527 63.3297 119.952C67.729 113.793 76.6875 25.9082 76.6875 18.8461C67.8358 24.156 50.0785 110.235 45.6261 116.447Z" fill="#47663B"/>
<path d="M180.939 78.9771V34.005H196.838V140H180.939V94.8763H127.942V140H112.043V34.005H127.942V78.9771H180.939ZM275.578 64.4406V55.2039H291.477V140H275.578V130.612C267.905 136.87 259.073 140 249.079 140C237.369 140 227.375 135.861 219.097 127.583C210.82 119.306 206.681 109.312 206.681 97.6019C206.681 85.892 210.82 75.8982 219.097 67.6205C227.375 59.3428 237.369 55.2039 249.079 55.2039C258.972 55.2039 267.805 58.2828 275.578 64.4406ZM249.079 124.101C256.448 124.101 262.707 121.526 267.855 116.378C273.003 111.129 275.578 104.87 275.578 97.6019C275.578 90.2327 273.003 83.974 267.855 78.8257C262.707 73.6773 256.448 71.1032 249.079 71.1032C241.811 71.1032 235.552 73.6773 230.303 78.8257C225.154 83.974 222.58 90.2327 222.58 97.6019C222.58 104.87 225.154 111.129 230.303 116.378C235.552 121.526 241.811 124.101 249.079 124.101ZM343.717 55.2039C348.966 55.2039 353.963 56.1125 358.708 57.9295L353.711 73.0717C350.279 71.7593 346.947 71.1032 343.717 71.1032C336.348 71.1032 330.089 73.6773 324.941 78.8257C319.793 83.974 317.218 90.2327 317.218 97.6019V140H301.319V55.2039H317.218V64.4406C324.991 58.2828 333.824 55.2039 343.717 55.2039ZM404.197 119.407L429.636 55.2039H446.595L412.222 140H396.323L361.799 55.2039H378.758L404.197 119.407ZM526.002 97.6019C526.002 100.025 525.75 102.649 525.245 105.476H457.863C459.175 111.735 462.102 116.429 466.645 119.558C471.289 122.586 476.942 124.101 483.604 124.101C493.295 124.101 501.119 121.426 507.075 116.075L520.703 124.101C517.27 129.249 511.971 133.186 504.803 135.911C497.737 138.637 490.671 140 483.604 140C471.692 140 461.648 135.911 453.471 127.735C445.295 119.558 441.206 109.514 441.206 97.6019C441.206 85.9929 445.345 76.0496 453.623 67.7719C462.002 59.3933 471.995 55.2039 483.604 55.2039C495.213 55.2039 505.157 59.3933 513.434 67.7719C521.813 76.0496 526.002 85.9929 526.002 97.6019ZM458.317 89.5766H508.892C507.276 84.1254 504.097 79.6837 499.352 76.2515C494.608 72.8193 489.358 71.1032 483.604 71.1032C477.85 71.1032 472.601 72.8193 467.856 76.2515C463.112 79.6837 459.932 84.1254 458.317 89.5766ZM602.352 113.501C602.352 121.375 598.819 127.785 591.752 132.732C584.787 137.577 575.954 140 565.254 140C558.995 140 552.736 139.394 546.477 138.183C540.319 136.971 535.726 135.76 532.698 134.549L528.155 132.58L534.515 118.044C535.323 118.448 536.483 119.003 537.998 119.709C539.512 120.416 542.944 121.325 548.294 122.435C553.645 123.545 559.298 124.101 565.254 124.101C569.796 124.101 573.632 123.697 576.762 122.889C579.891 121.981 582.061 120.921 583.273 119.709C584.484 118.397 585.342 117.135 585.847 115.924C586.452 114.612 586.705 113.552 586.604 112.744L586.452 111.381C585.342 109.665 582.516 108.403 577.973 107.596C573.531 106.687 568.585 105.93 563.134 105.324C557.682 104.618 552.282 103.608 546.932 102.296C541.581 100.984 537.089 98.6114 533.455 95.1792C529.922 91.7469 528.155 87.2548 528.155 81.7027C528.155 73.8288 531.638 67.4691 538.603 62.6236C545.67 57.6772 554.553 55.2039 565.254 55.2039C571.512 55.2039 577.266 55.7592 582.516 56.8696C587.866 57.8791 591.651 58.939 593.872 60.0494L597.052 61.5636L589.329 75.4944C582.465 72.5669 574.44 71.1032 565.254 71.1032C561.317 71.1032 557.884 71.4565 554.957 72.1631C552.029 72.8698 549.909 73.6773 548.597 74.5859C547.285 75.3934 546.225 76.4029 545.417 77.6143C544.711 78.7247 544.307 79.5828 544.206 80.1885C544.105 80.6932 544.055 81.1979 544.055 81.7027C544.055 83.9235 546.023 85.5891 549.96 86.6996C553.998 87.709 558.843 88.5166 564.496 89.1223C570.25 89.627 576.004 90.4851 581.758 91.6965C587.512 92.9078 592.358 95.3306 596.295 98.9647C600.333 102.599 602.352 107.444 602.352 113.501ZM659.723 118.044L662.902 133.64C662.398 134.145 661.641 134.751 660.631 135.457C659.723 136.164 657.451 137.123 653.817 138.334C650.183 139.445 646.145 140 641.704 140C634.334 140 628.076 137.426 622.927 132.277C617.779 127.129 615.205 120.87 615.205 113.501V71.1032H604.605V55.2039H615.205V34.005H631.104V55.2039H659.723V71.1032H631.104V108.201C631.104 110.927 631.609 113.35 632.618 115.47C633.628 117.489 634.839 118.952 636.252 119.861C637.767 120.769 639.23 121.526 640.644 122.132C642.158 122.637 643.42 122.94 644.429 123.041H645.943C648.467 123.041 650.839 122.637 653.06 121.829C655.382 121.022 657.098 120.214 658.208 119.407L659.723 118.044Z" fill="black"/>
<path d="M697.584 123.798C699.502 125.615 700.461 127.836 700.461 130.46C700.461 133.085 699.502 135.356 697.584 137.274C695.767 139.091 693.546 140 690.921 140C688.297 140 686.025 139.091 684.107 137.274C682.29 135.356 681.382 133.085 681.382 130.46C681.382 127.836 682.29 125.615 684.107 123.798C686.025 121.88 688.297 120.921 690.921 120.921C693.546 120.921 695.767 121.88 697.584 123.798Z" fill="#1F4529"/>
</svg>
