<svg width="96" height="96" viewBox="0 0 96 96" fill="none" xmlns="http://www.w3.org/2000/svg">
<path fill-rule="evenodd" clip-rule="evenodd" d="M4.70325 48.1071C12.7021 31.7308 29.1257 20.4977 48.0894 20.4977C67.0531 20.4977 83.4767 31.7308 91.4756 48.1071C83.4767 64.4834 67.0531 75.7164 48.0894 75.7164C29.1257 75.7164 12.7021 64.4834 4.70325 48.1071ZM48.0894 61.9117C49.9023 61.9117 51.6974 61.5547 53.3722 60.8609C55.0471 60.1672 56.5689 59.1503 57.8508 57.8684C59.1327 56.5866 60.1495 55.0647 60.8433 53.3899C61.537 51.715 61.8941 49.9199 61.8941 48.1071C61.8941 46.2942 61.537 44.4991 60.8433 42.8242C60.1495 41.1494 59.1327 39.6276 57.8508 38.3457C56.5689 37.0638 55.0471 36.0469 53.3722 35.3532C51.6974 34.6594 49.9023 34.3024 48.0894 34.3024C44.4282 34.3024 40.9169 35.7568 38.328 38.3457C35.7391 40.9345 34.2847 44.4458 34.2847 48.1071C34.2847 51.7683 35.7391 55.2796 38.328 57.8684C40.9169 60.4573 44.4282 61.9117 48.0894 61.9117Z" fill="#1F4529"/>
</svg>
