<svg width="32" height="33" viewBox="0 0 32 33" fill="none" xmlns="http://www.w3.org/2000/svg">
<g clip-path="url(#clip0_62_120)">
<path d="M32 7.77596V26.3213C32 27.5266 31.024 28.5026 29.8187 28.5026H24.7267V16.14L16 22.6866L7.27333 16.14V28.504H2.18133C1.89476 28.504 1.611 28.4475 1.34627 28.3378C1.08153 28.2281 0.841 28.0673 0.638427 27.8646C0.435854 27.6619 0.275206 27.4213 0.165662 27.1565C0.0561178 26.8917 -0.000174757 26.6079 4.07535e-07 26.3213V7.77596C4.07535e-07 5.07862 3.07867 3.53862 5.236 5.15729L7.27333 6.68662L16 13.2306L24.7267 6.68396L26.764 5.15729C28.92 3.53996 32 5.07862 32 7.77596Z" fill="black"/>
</g>
<defs>
<clipPath id="clip0_62_120">
<rect width="32" height="32" fill="white" transform="translate(0 0.5)"/>
</clipPath>
</defs>
</svg>
