<svg width="40" height="40" viewBox="0 0 40 40" fill="none" xmlns="http://www.w3.org/2000/svg">
<path d="M36.1833 33.8167L30 27.6833C32.4001 24.6907 33.5625 20.8922 33.248 17.0688C32.9335 13.2455 31.1661 9.68796 28.3092 7.12773C25.4522 4.5675 21.723 3.19918 17.8882 3.30411C14.0534 3.40904 10.4045 4.97926 7.69187 7.6919C4.97923 10.4045 3.40901 14.0534 3.30408 17.8882C3.19915 21.723 4.56747 25.4523 7.1277 28.3092C9.68793 31.1661 13.2455 32.9335 17.0688 33.248C20.8921 33.5625 24.6906 32.4002 27.6833 30L33.8166 36.1333C33.9716 36.2895 34.1559 36.4135 34.359 36.4981C34.5621 36.5828 34.7799 36.6263 35 36.6263C35.22 36.6263 35.4378 36.5828 35.6409 36.4981C35.844 36.4135 36.0284 36.2895 36.1833 36.1333C36.4837 35.8226 36.6516 35.4072 36.6516 34.975C36.6516 34.5428 36.4837 34.1274 36.1833 33.8167ZM18.3333 30C16.0258 30 13.7702 29.3158 11.8516 28.0338C9.93307 26.7519 8.43772 24.9298 7.5547 22.798C6.67168 20.6662 6.44064 18.3204 6.8908 16.0573C7.34096 13.7942 8.4521 11.7154 10.0837 10.0837C11.7153 8.45214 13.7941 7.34099 16.0572 6.89083C18.3204 6.44067 20.6661 6.67171 22.7979 7.55473C24.9297 8.43775 26.7518 9.9331 28.0338 11.8517C29.3157 13.7702 30 16.0259 30 18.3333C30 21.4275 28.7708 24.395 26.5829 26.5829C24.395 28.7708 21.4275 30 18.3333 30Z" fill="#ACACAC"/>
</svg>
