<svg width="96" height="96" viewBox="0 0 96 96" fill="none" xmlns="http://www.w3.org/2000/svg">
<path d="M36.3344 47.1794L45.343 38.1472L37.2455 30.0222L32.6742 34.5895L29.8817 31.797L34.4294 27.2297L26.7303 19.5306L17.6981 28.5628L36.3344 47.1794ZM67.2333 78.1019L76.2655 69.0697L68.5704 61.3706L64.003 65.9143L61.2144 63.1218L65.7542 58.5545L57.708 50.532L48.6955 59.5405L67.2333 78.1019ZM61.672 27.4348L68.4875 34.2464L75.3741 27.3598L68.5388 20.5245L61.672 27.4348ZM28.6314 79.6875H16.1875V67.2475L33.5183 49.9167L12.2433 28.5667L26.7303 14.0797L48.1828 35.4533L65.8015 17.8109C66.2354 17.3744 66.6929 17.0602 67.1741 16.8683C67.6553 16.6763 68.168 16.5803 68.7123 16.5803C69.2566 16.5803 69.7694 16.6763 70.2506 16.8683C70.7318 17.0602 71.1906 17.3744 71.6271 17.8109L78.064 24.5003C78.5005 24.9341 78.8029 25.3917 78.9712 25.8729C79.1395 26.3541 79.2223 26.8668 79.2197 27.4111C79.2171 27.9554 79.1329 28.4524 78.9673 28.902C78.8016 29.3516 78.5018 29.7934 78.068 30.2273L60.5952 47.7947L81.7992 69.1446L67.3043 83.6317L45.9543 62.3567L28.6314 79.6875Z" fill="#1F4529"/>
</svg>
